<svg fill="none" height="17" viewBox="0 0 220 17" width="220" xmlns="http://www.w3.org/2000/svg"><g fill="#fff"><path d="m4.20164 16.3331c-.51288 0-.76932-.146-.76932-.4379 0-.2288.14203-.3432.42608-.3432l.57995.0591c.47342 0 .78904-.2643.94684-.7929.14203-.4498.21305-1.2546.21305-2.4145v-11.06628h-.31957c-1.38081 0-2.48152.14203-3.30213.42608-.5681.20515-.95473.55628-1.159884 1.05337-.149918.36296-.307726.54444-.473424.54444-.228821 0-.343232-.13414-.343232-.40241 0-.07891.0157808-.16965.0473424-.27222.0394519-.10258.0828496-.22488.1301916-.3669.126246-.37874.201205-.77326.224876-1.18356.023671-.410304.067069-.682522.130192-.816659.071013-.142027.165698-.213041.284054-.213041s.224874.011836.319564.035507c.09468.015781.23276.035507.41424.059178.47343.063123 1.06915.094685 1.78718.094685h7.50376c.5839 0 1.006-.031562 1.2664-.094685.2683-.063123.4616-.094685.58-.094685.2603 0 .3905.122301.3905.366904 0 .126246-.0236.276164-.071.449752-.1183.386634-.1972.721974-.2367 1.006024-.0316.27617-.0631.50499-.0947.68647-.0315.17358-.067.31167-.1065.41424-.0631.17359-.1578.26039-.2841.26039-.1262 0-.2091-.0434-.2485-.1302-.0316-.09468-.0671-.27222-.1065-.5326-.0395-.26038-.1065-.47342-.2012-.63912s-.221-.29589-.3788-.39057c-.2761-.17359-.7259-.26039-1.3492-.26039h-2.54468v11.06628c0 1.1915.05129 1.9608.15387 2.3079.11046.3393.24065.576.39057.7102.15781.1262.36296.1893.61545.1893l.56811-.0591c.28405 0 .42608.1144.42608.3432 0 .2919-.25249.4379-.75748.4379-.26038 0-.53654-.0237-.82849-.071-.94685-.1499-1.75956-.1775-2.43813-.0828-.67068.1025-1.13227.1538-1.38476.1538z"/><path d="m15.3153 16.3331c-.5129 0-.7694-.146-.7694-.4379 0-.2288.1421-.3432.4261-.3432l.58.0591c.4261 0 .7219-.2051.8876-.6154.1815-.4576.2723-1.3216.2723-2.592v-8.35593c0-1.30191-.0711-2.11857-.2131-2.44996-.1341-.33929-.2761-.54839-.4261-.627291-.142-.086795-.3156-.130192-.5207-.130192l-.58.047343c-.284 0-.4261-.114411-.4261-.343233 0-.291944.217-.437917.651-.437917s.8443.031562 1.2309.094685c.3945.063123.8048.094685 1.2309.094685s.8246-.031562 1.1954-.094685c.3787-.063123.7851-.094685 1.2191-.094685.4339 0 .6509.145973.6509.437917 0 .228822-.142.343233-.4261.343233l-.5681-.047343c-.426 0-.7219.205153-.8876.615453-.1815.45764-.2723 1.32164-.2723 2.59199v2.68668h8.3678v-2.68668c0-1.30191-.071-2.11857-.213-2.44996-.1342-.33929-.2762-.54839-.4261-.627291-.142-.086795-.3156-.130192-.5208-.130192l-.5799.047343c-.2841 0-.4261-.114411-.4261-.343233 0-.291944.217-.437917.651-.437917.4339 0 .8442.031562 1.2309.094685.3945.063123.8048.094685 1.2309.094685.426 0 .8245-.031562 1.1954-.094685.3787-.063123.785-.094685 1.219-.094685s.651.145973.651.437917c0 .228822-.1421.343233-.4261.343233l-.5681-.047343c-.4261 0-.722.205153-.8877.615453-.1815.45764-.2722 1.32164-.2722 2.59199v8.35593c0 1.2861.0671 2.0988.2012 2.4381.142.3393.2841.5524.4261.6392.1499.0868.3274.1301.5326.1301l.5681-.0591c.284 0 .4261.1144.4261.3432 0 .2919-.2525.4379-.7575.4379-.2604 0-.5365-.0237-.8285-.071-.4497-.071-.935-.1065-1.4558-.1065-.5207 0-.9823.0276-1.3847.0828-.4024.0632-.7299.0947-.9824.0947-.5129 0-.7693-.146-.7693-.4379 0-.2288.142-.3432.4261-.3432l.5799.0591c.4261 0 .722-.2051.8877-.6154.1815-.4576.2722-1.3216.2722-2.592v-4.54487h-8.3678v4.54487c0 1.2861.0671 2.0988.2013 2.4381.142.3393.284.5524.426.6392.1499.0868.3275.1301.5326.1301l.5681-.0591c.2841 0 .4261.1144.4261.3432 0 .2919-.2525.4379-.7575.4379-.2603 0-.5365-.0237-.8284-.071-.9469-.1499-1.7596-.1775-2.4382-.0828-.6707.1025-1.1323.1538-1.3847.1538z"/><path d="m33.1752 16.3331c-.434 0-.651-.146-.651-.4379 0-.2288.142-.3432.4261-.3432l.5799.0591c.4419 0 .7417-.1893.8995-.5681.1736-.4339.2604-1.3019.2604-2.6038v-8.39143c0-1.29402-.0631-2.10673-.1893-2.43813-.1184-.33929-.2525-.55233-.4025-.639121-.1499-.086795-.3392-.130192-.5681-.130192l-.5799.047343c-.2841 0-.4261-.114411-.4261-.343233 0-.291944.2091-.437917.6273-.437917.4261 0 .7733.011836 1.0415.035507.2762.015781.5524.035507.8285.059178.7338.063123 1.3098.094685 1.728.094685.4261 0 .8758-.007891 1.3493-.023671.4734-.023672 1.0021-.047343 1.5859-.071014 1.5387-.063123 2.6039-.094685 3.1957-.094685.5996 0 .931.035507.9941.106521.0711.071013.1066.169643.1066.29589 0 .118355-.004.232766-.0119.343232 0 .110465-.0039.232767-.0118.366907-.0079.18148-.0316.45369-.071.81665-.0395.35507-.0868.59573-.142.72197-.0553.11836-.1342.17754-.2368.17754-.1025 0-.1735-.02367-.213-.07102-.0395-.05523-.0947-.17359-.1657-.35506-.0631-.18937-.1815-.36691-.3551-.53261-.1657-.17358-.43-.31561-.793-.42608-.7101-.21304-2.0238-.31956-3.9412-.31956h-1.0534c-.1893 0-.3116.02762-.3669.08285-.0473.05523-.071.18148-.071.37874v4.98278c.939.11047 1.7162.1657 2.3316.1657.6234 0 1.0652-.00394 1.3256-.01183.2683-.00789.4892-.03156.6628-.07102.3077-.05523.5287-.19331.6628-.41424.2683-.41819.4853-.62729.651-.62729.213 0 .3195.11047.3195.3314l-.4142 1.68065.0473.89951c0 .56811-.1341.85216-.4024.85216-.2288 0-.3432-.14992-.3432-.44975 0-.30773-.0198-.53655-.0592-.68647-.0316-.14991-.1302-.26827-.2959-.35506-.2525-.12625-.8679-.18937-1.8464-.18937-.9784 0-1.8581.04339-2.6393.13019v2.80505c0 1.7438.0395 3.1838.1184 4.32.6391.142 1.3334.213 2.083.213s1.3887-.0197 1.9174-.0592c.5365-.0394.9981-.1183 1.3848-.2367.7653-.2288 1.3295-.6667 1.6925-1.3137.1578-.2841.3156-.4261.4734-.4261s.2367.1144.2367.3432c0 .0947-.0276.217-.0829.3669-.0631.2052-.1538.5129-.2722.9232-.1183.4024-.2091.6944-.2722.8758-.0631.1815-.1341.3196-.213.4143-.1184.1578-.3512.2367-.6983.2367-.3472 0-.6826-.0039-1.0061-.0118-.3235 0-.6628-.004-1.0178-.0119-.4103-.0158-1.0455-.0473-1.9056-.0947-2.1461-.1025-3.4047-.138-3.7755-.1065-.3709.0316-.651.0553-.8403.071-.1894.0237-.3748.0434-.5563.0592-.1815.0237-.3945.0355-.6391.0355z"/><path d="m67.8298 3.71638c0 .30772-.1065.46158-.3196.46158-.1893 0-.3472-.18936-.4734-.5681-.1184-.38663-.3472-.74959-.6865-1.08888s-.7456-.62334-1.219-.85216c-.9863-.48132-2.0476-.721973-3.1838-.721973-1.1283 0-2.1067.153863-2.9352.461593-.8206.29983-1.5268.7338-2.1186 1.30191-1.2309 1.20723-1.8464 2.8366-1.8464 4.8881 0 2.27244.6944 4.14645 2.0831 5.62195 1.3808 1.4676 3.1483 2.2014 5.3024 2.2014 2.3986 0 4.2529-1.1007 5.5627-3.3022.0868-.142.1775-.2209.2722-.2367.0868 0 .1736.0947.2604.2841s.1302.4024.1302.6391c0 .3945-.3354.9074-1.0061 1.5386-.6706.6313-1.4873 1.1402-2.4499 1.5268-.9548.3867-2.0712.58-3.3495.58-1.2703 0-2.4776-.2052-3.6217-.6155-1.1362-.4182-2.1028-.9863-2.8997-1.7043-1.6728-1.4992-2.5091-3.3731-2.5091-5.62191 0-2.54071.8442-4.59221 2.5328-6.15451 1.6885-1.570186 3.9097-2.35528 6.6634-2.35528 1.9884 0 3.6335.264328 4.9354.792985.2525.110465.4182.216985.4971.319565.1579.22093.2486.55232.2723.99419.0315.43397.0512.7338.0591.8995.0316.38663.0474.62334.0474.71014z"/><path d="m70.4336 8.14289c0-1.19145.2209-2.28427.6628-3.27846.4498-1.00208 1.0534-1.86213 1.8109-2.58016.7653-.72592 1.649-1.286135 2.6511-1.680655 1.0021-.40241 2.0831-.603615 3.243-.603615s2.2369.213041 3.2311.639122c.9942.418188 1.8463.998138 2.5565 1.739828 1.4913 1.57019 2.2369 3.56252 2.2369 5.97698 0 2.28817-.7693 4.20167-2.3079 5.74027-1.5702 1.5702-3.5665 2.3553-5.9888 2.3553-2.3672 0-4.3161-.793-5.8468-2.379-1.4992-1.5623-2.2488-3.5388-2.2488-5.92961zm2.0239-.67463c0 1.02575.1657 2.03572.4971 3.02994.3393.9863.8166 1.8463 1.4321 2.5801 1.3177 1.5939 2.9826 2.3908 4.9946 2.3908 1.5544 0 2.8287-.5839 3.8229-1.7516 1.0258-1.1994 1.5386-2.7775 1.5386-4.73428 0-2.31189-.6194-4.22926-1.8581-5.7521-1.2309-1.49918-2.7893-2.248766-4.6751-2.248766-1.5544 0-2.8918.591776-4.0123 1.775336-1.1599 1.23091-1.7398 2.80109-1.7398 4.71057z"/><path d="m89.5954 16.3331c-.5128 0-.7693-.146-.7693-.4379 0-.2288.1421-.3432.4261-.3432l.5799.0591c.4735 0 .793-.2643.9587-.7929.1342-.4498.2012-1.2546.2012-2.4145v-8.35593c0-1.15989-.0552-1.91736-.1657-2.27243-.1104-.36296-.2446-.60756-.4024-.73381-.1499-.134134-.3471-.201203-.5918-.201203l-.5799.047343c-.284 0-.4261-.114411-.4261-.343233 0-.291944.2091-.437917.6273-.437917.4261 0 .7733.011836 1.0415.035507.2683.015781.5405.035507.8167.059178.7259.063123 1.2743.094685 1.6451.094685.3709 0 .7694-.007891 1.1954-.023671.4261-.023672.9153-.047343 1.4677-.071014 1.4755-.063123 2.5012-.094685 3.0772-.094685s.8956.035507.9587.106521c.071.071013.1065.169643.1065.29589 0 .118355-.0039.232766-.0118.343232 0 .110465-.004.232767-.0119.366907-.0078.18148-.0315.45369-.071.81665-.0394.35507-.0868.59573-.142.72197-.0552.11836-.1341.17754-.2367.17754s-.1736-.02367-.2131-.07102c-.0394-.05523-.0946-.17359-.1657-.35506-.0631-.18937-.1814-.36691-.355-.53261-.1657-.17358-.434-.31561-.8048-.42608-.7023-.21304-2.0121-.31956-3.9295-.31956h-.5799c-.1894 0-.3117.02762-.3669.08285-.0473.05523-.071.18148-.071.37874v5.24317c.7496.08679 1.4203.13019 2.012.13019.5918 0 1.0179-.00395 1.2783-.01184.2683-.00789.4892-.02761.6628-.05917.3077-.06313.5286-.20515.6628-.42609.2682-.41819.4852-.62728.6509-.62728.2131 0 .3196.11046.3196.33139l-.4143 1.68066.0474.8995c0 .56811-.1342.85217-.4024.85217-.2289 0-.3433-.14992-.3433-.44976 0-.30772-.0197-.53654-.0591-.68646-.0316-.14992-.1302-.26433-.2959-.34323-.2525-.13414-.9508-.20121-2.0949-.20121-.0237 0-.6983.03156-2.0239.09469v4.28448c0 1.1915.0513 1.9608.1538 2.3079.1105.3393.2407.576.3906.7102.1578.1262.363.1893.6155.1893l.6391-.0591c.2998 0 .4497.1144.4497.3432 0 .2919-.2603.4379-.7811.4379l-2.2251-.1775c-.576 0-1.0652.0276-1.4676.0828-.4024.0632-.7299.0947-.9824.0947z"/><path d="m102.236 16.3331c-.513 0-.769-.146-.769-.4379 0-.2288.142-.3432.426-.3432l.58.0591c.473 0 .793-.2643.958-.7929.134-.4498.201-1.2546.201-2.4145v-8.35593c0-1.15989-.055-1.91736-.165-2.27243-.111-.36296-.245-.60756-.403-.73381-.15-.134134-.347-.201203-.591-.201203l-.58.047343c-.284 0-.426-.114411-.426-.343233 0-.291944.209-.437917.627-.437917.426 0 .773.011836 1.041.035507.269.015781.541.035507.817.059178.726.063123 1.274.094685 1.645.094685s.769-.007891 1.196-.023671c.426-.023672.915-.047343 1.467-.071014 1.476-.063123 2.501-.094685 3.077-.094685s.896.035507.959.106521c.071.071013.107.169643.107.29589 0 .118355-.004.232766-.012.343232 0 .110465-.004.232767-.012.366907-.008.18148-.032.45369-.071.81665-.04.35507-.087.59573-.142.72197-.055.11836-.134.17754-.237.17754-.102 0-.173-.02367-.213-.07102-.039-.05523-.095-.17359-.166-.35506-.063-.18937-.181-.36691-.355-.53261-.165-.17358-.434-.31561-.804-.42608-.703-.21304-2.012-.31956-3.93-.31956h-.58c-.189 0-.311.02762-.367.08285-.047.05523-.071.18148-.071.37874v5.24317c.75.08679 1.421.13019 2.012.13019.592 0 1.018-.00395 1.279-.01184.268-.00789.489-.02761.662-.05917.308-.06313.529-.20515.663-.42609.268-.41819.485-.62728.651-.62728.213 0 .32.11046.32.33139l-.415 1.68066.048.8995c0 .56811-.134.85217-.403.85217-.228 0-.343-.14992-.343-.44976 0-.30772-.02-.53654-.059-.68646-.032-.14992-.13-.26433-.296-.34323-.252-.13414-.951-.20121-2.095-.20121-.023 0-.698.03156-2.024.09469v4.28448c0 1.1915.052 1.9608.154 2.3079.111.3393.241.576.391.7102.158.1262.363.1893.615.1893l.639-.0591c.3 0 .45.1144.45.3432 0 .2919-.26.4379-.781.4379l-2.225-.1775c-.576 0-1.065.0276-1.468.0828-.402.0632-.73.0947-.982.0947z"/><path d="m114.722 16.3331c-.434 0-.651-.146-.651-.4379 0-.2288.142-.3432.427-.3432l.579.0591c.442 0 .742-.1893.9-.5681.174-.4339.26-1.3019.26-2.6038v-8.39143c0-1.29402-.063-2.10673-.189-2.43813-.118-.33929-.253-.55233-.402-.639121-.15-.086795-.34-.130192-.569-.130192l-.579.047343c-.285 0-.427-.114411-.427-.343233 0-.291944.21-.437917.628-.437917.426 0 .773.011836 1.041.035507.276.015781.553.035507.829.059178.734.063123 1.31.094685 1.728.094685.426 0 .876-.007891 1.349-.023671.473-.023672 1.002-.047343 1.586-.071014 1.539-.063123 2.604-.094685 3.196-.094685.599 0 .931.035507.994.106521.071.071013.106.169643.106.29589 0 .118355-.004.232766-.012.343232 0 .110465-.003.232767-.011.366907-.008.18148-.032.45369-.071.81665-.04.35507-.087.59573-.142.72197-.056.11836-.135.17754-.237.17754-.103 0-.174-.02367-.213-.07102-.04-.05523-.095-.17359-.166-.35506-.063-.18937-.181-.36691-.355-.53261-.166-.17358-.43-.31561-.793-.42608-.71-.21304-2.024-.31956-3.941-.31956h-1.054c-.189 0-.311.02762-.366.08285-.048.05523-.071.18148-.071.37874v4.98278c.939.11047 1.716.1657 2.331.1657.623 0 1.065-.00394 1.326-.01183.268-.00789.489-.03156.663-.07102.307-.05523.528-.19331.662-.41424.269-.41819.486-.62729.651-.62729.213 0 .32.11047.32.3314l-.414 1.68065.047.89951c0 .56811-.134.85216-.402.85216-.229 0-.344-.14992-.344-.44975 0-.30773-.019-.53655-.059-.68647-.031-.14991-.13-.26827-.296-.35506-.252-.12625-.868-.18937-1.846-.18937-.979 0-1.858.04339-2.639.13019v2.80505c0 1.7438.039 3.1838.118 4.32.639.142 1.333.213 2.083.213s1.389-.0197 1.917-.0592c.537-.0394.998-.1183 1.385-.2367.765-.2288 1.33-.6667 1.693-1.3137.157-.2841.315-.4261.473-.4261s.237.1144.237.3432c0 .0947-.028.217-.083.3669-.063.2052-.154.5129-.272.9232-.119.4024-.209.6944-.273.8758-.063.1815-.134.3196-.213.4143-.118.1578-.351.2367-.698.2367s-.682-.0039-1.006-.0118c-.323 0-.663-.004-1.018-.0119-.41-.0158-1.045-.0473-1.905-.0947-2.147-.1025-3.405-.138-3.776-.1065-.371.0316-.651.0553-.84.071-.19.0237-.375.0434-.556.0592-.182.0237-.395.0355-.64.0355z"/><path d="m128.381 16.3331c-.434 0-.651-.146-.651-.4379 0-.2288.142-.3432.426-.3432l.58.0591c.442 0 .741-.1893.899-.5681.174-.4339.261-1.3019.261-2.6038v-8.39143c0-1.29402-.063-2.10673-.19-2.43813-.118-.33929-.252-.55233-.402-.639121-.15-.086795-.339-.130192-.568-.130192l-.58.047343c-.284 0-.426-.114411-.426-.343233 0-.291944.209-.437917.627-.437917.426 0 .773.011836 1.042.035507.276.015781.552.035507.828.059178.734.063123 1.31.094685 1.728.094685.426 0 .876-.007891 1.349-.023671.474-.023672 1.002-.047343 1.586-.071014 1.539-.063123 2.604-.094685 3.196-.094685.6 0 .931.035507.994.106521.071.071013.107.169643.107.29589 0 .118355-.004.232766-.012.343232 0 .110465-.004.232767-.012.366907-.008.18148-.032.45369-.071.81665-.04.35507-.087.59573-.142.72197-.055.11836-.134.17754-.237.17754-.102 0-.173-.02367-.213-.07102-.039-.05523-.095-.17359-.166-.35506-.063-.18937-.181-.36691-.355-.53261-.165-.17358-.43-.31561-.793-.42608-.71-.21304-2.024-.31956-3.941-.31956h-1.053c-.19 0-.312.02762-.367.08285-.048.05523-.071.18148-.071.37874v4.98278c.939.11047 1.716.1657 2.331.1657.624 0 1.066-.00394 1.326-.01183.268-.00789.489-.03156.663-.07102.308-.05523.528-.19331.663-.41424.268-.41819.485-.62729.651-.62729.213 0 .319.11047.319.3314l-.414 1.68065.047.89951c0 .56811-.134.85216-.402.85216-.229 0-.343-.14992-.343-.44975 0-.30773-.02-.53655-.06-.68647-.031-.14991-.13-.26827-.295-.35506-.253-.12625-.868-.18937-1.847-.18937-.978 0-1.858.04339-2.639.13019v2.80505c0 1.7438.039 3.1838.118 4.32.639.142 1.334.213 2.083.213.75 0 1.389-.0197 1.918-.0592.536-.0394.998-.1183 1.384-.2367.766-.2288 1.33-.6667 1.693-1.3137.158-.2841.315-.4261.473-.4261s.237.1144.237.3432c0 .0947-.028.217-.083.3669-.063.2052-.154.5129-.272.9232-.118.4024-.209.6944-.272.8758-.063.1815-.134.3196-.213.4143-.119.1578-.351.2367-.699.2367-.347 0-.682-.0039-1.006-.0118-.323 0-.662-.004-1.018-.0119-.41-.0158-1.045-.0473-1.905-.0947-2.146-.1025-3.405-.138-3.776-.1065-.37.0316-.651.0553-.84.071-.189.0237-.375.0434-.556.0592-.182.0237-.395.0355-.639.0355z"/><path d="m142.193 16.3331c-.513 0-.77-.146-.77-.4379 0-.2288.143-.3432.427-.3432l.58.0591c.426 0 .721-.2051.887-.6154.182-.4576.272-1.3216.272-2.592v-8.35593c0-1.30191-.071-2.11857-.213-2.44996-.134-.33929-.276-.54839-.426-.627291-.142-.086795-.315-.130192-.52-.130192l-.58.047343c-.284 0-.427-.114411-.427-.343233 0-.291944.217-.437917.651-.437917s.845.031562 1.231.094685c.395.063123.805.094685 1.231.094685s.825-.031562 1.196-.094685c.378-.063123.785-.094685 1.219-.094685s.651.145973.651.437917c0 .228822-.142.343233-.426.343233l-.569-.047343c-.426 0-.721.205153-.887.615453-.182.45764-.272 1.32164-.272 2.59199v2.68668h8.367v-2.68668c0-1.30191-.071-2.11857-.213-2.44996-.134-.33929-.276-.54839-.426-.627291-.142-.086795-.315-.130192-.521-.130192l-.579.047343c-.285 0-.427-.114411-.427-.343233 0-.291944.217-.437917.651-.437917s.845.031562 1.231.094685c.395.063123.805.094685 1.231.094685s.825-.031562 1.196-.094685c.378-.063123.785-.094685 1.219-.094685s.651.145973.651.437917c0 .228822-.142.343233-.426.343233l-.569-.047343c-.426 0-.722.205153-.887.615453-.182.45764-.272 1.32164-.272 2.59199v8.35593c0 1.2861.067 2.0988.201 2.4381.142.3393.284.5524.426.6392.15.0868.327.1301.532.1301l.569-.0591c.284 0 .426.1144.426.3432 0 .2919-.253.4379-.758.4379-.26 0-.536-.0237-.828-.071-.45-.071-.935-.1065-1.456-.1065s-.982.0276-1.385.0828c-.402.0632-.73.0947-.982.0947-.513 0-.77-.146-.77-.4379 0-.2288.142-.3432.427-.3432l.579.0591c.427 0 .722-.2051.888-.6154.182-.4576.272-1.3216.272-2.592v-4.54487h-8.367v4.54487c0 1.2861.067 2.0988.201 2.4381.142.3393.284.5524.426.6392.15.0868.327.1301.532.1301l.569-.0591c.284 0 .426.1144.426.3432 0 .2919-.253.4379-.758.4379-.26 0-.536-.0237-.828-.071-.947-.1499-1.76-.1775-2.438-.0828-.671.1025-1.133.1538-1.385.1538z"/><path d="m159.816 8.14289c0-1.19145.221-2.28427.663-3.27846.45-1.00208 1.053-1.86213 1.811-2.58016.765-.72592 1.649-1.286135 2.651-1.680655 1.002-.40241 2.083-.603615 3.243-.603615s2.237.213041 3.231.639122c.994.418188 1.846.998138 2.556 1.739828 1.492 1.57019 2.237 3.56252 2.237 5.97698 0 2.28817-.769 4.20167-2.308 5.74027-1.57 1.5702-3.566 2.3553-5.988 2.3553-2.368 0-4.316-.793-5.847-2.379-1.499-1.5623-2.249-3.5388-2.249-5.92961zm2.024-.67463c0 1.02575.166 2.03572.497 3.02994.339.9863.817 1.8463 1.432 2.5801 1.318 1.5939 2.983 2.3908 4.995 2.3908 1.554 0 2.828-.5839 3.823-1.7516 1.025-1.1994 1.538-2.7775 1.538-4.73428 0-2.31189-.619-4.22926-1.858-5.7521-1.231-1.49918-2.789-2.248766-4.675-2.248766-1.554 0-2.892.591776-4.012 1.775336-1.16 1.23091-1.74 2.80109-1.74 4.71057z"/><path d="m183.795.88767-.568-.047343c-.482 0-.809.264333-.983.792983-.149.46554-.224 1.27036-.224 2.41446v5.84679c0 1.09674.078 1.88584.236 2.36714.158.4734.379.9074.663 1.3019.292.3945.631.7299 1.018 1.006.781.5523 1.661.8285 2.639.8285.987 0 1.799-.1144 2.438-.3432.64-.2367 1.148-.5879 1.527-1.0534.702-.8522 1.054-2.2409 1.054-4.16612l-.024-5.78761c0-1.15989-.055-1.91736-.166-2.27243-.11-.36296-.244-.60756-.402-.73381-.15-.134134-.347-.201203-.592-.201203l-.58.047343c-.284 0-.426-.114411-.426-.343233 0-.291944.217-.437917.651-.437917s.813.031562 1.136.094685c.324.063123.663.094685 1.018.094685l1.953-.18937c.505 0 .757.145973.757.437917 0 .228822-.142.343233-.426.343233l-.568-.047343c-.481 0-.801.264333-.958.792983-.135.45764-.202 1.26247-.202 2.41446l-.023 6.39123c0 1.7596-.561 3.1995-1.681 4.32-1.128 1.1283-2.631 1.6925-4.509 1.6925-2.044 0-3.658-.5642-4.841-1.6925-1.207-1.1678-1.811-2.7893-1.811-4.86444v-5.84679c0-1.1441-.059-1.89764-.178-2.2606-.118-.37084-.256-.61939-.414-.74564-.158-.134134-.363-.201203-.615-.201203l-.58.047343c-.284 0-.426-.114411-.426-.343233 0-.291944.217-.437917.651-.437917.442 0 .872.031562 1.29.094685s.856.094685 1.314.094685c.465 0 .911-.031562 1.337-.094685.434-.063123.864-.094685 1.29-.094685.434 0 .651.145973.651.437917 0 .228822-.142.343233-.426.343233z"/><path d="m204.424.473424.497-.071014c.221 0 .344.181479.367.544437.024.355073.056.647013.095.875833s.079.43397.118.61545c.04.18148.071.33534.095.46159.032.12625.047.23277.047.31956 0 .07891-.047.15781-.142.23671-.086.07102-.181.10652-.284.10652-.181 0-.359-.19331-.532-.57994-.332-.73381-.608-1.20723-.829-1.42027-.513-.45764-1.266-.686466-2.26-.686466-1.389 0-2.32.414246-2.794 1.242736-.149.26827-.224.59573-.224.98236 0 .38662.09.74958.272 1.08887.189.33929.473.68252.852 1.0297.387.33928.876.70619 1.468 1.10071.591.39452 1.227.82454 1.905 1.29008.679.46553 1.207.88767 1.586 1.26641.379.37084.687.74169.923 1.11254.45.70226.675 1.38476.675 2.04756s-.095 1.2546-.284 1.7753c-.19.5129-.497.9627-.923 1.3493-.924.86-2.289 1.2901-4.095 1.2901-.916 0-1.926-.2012-3.03-.6036-.253-.0868-.411-.1855-.474-.2959-.071-.1342-.134-.3867-.189-.7575-.055-.3709-.122-.7062-.201-1.006-.071-.2999-.138-.5681-.202-.8049l-.165-.6154c-.048-.1815-.071-.3314-.071-.4498 0-.284.106-.426.319-.426.284 0 .489.2169.616.6509.221.7733.418 1.2743.591 1.5031.671.8838 1.448 1.4598 2.332 1.728.26.0789.608.1184 1.042.1184.442 0 .872-.0631 1.29-.1894.426-.1341.777-.3116 1.053-.5326.521-.4261.781-.9429.781-1.5504 0-.6155-.197-1.1678-.592-1.657-.386-.4971-.856-.9271-1.408-1.2901-.544-.37085-.955-.64307-1.231-.81666-.268-.17359-.521-.33929-.757-.4971-1.997-1.33347-3.176-2.65906-3.539-3.97676-.095-.34717-.142-.74564-.142-1.19539s.11-.91134.331-1.38476c.221-.47343.537-.88767.947-1.24274.907-.773261 2.079-1.15989 3.515-1.15989.655 0 1.18.0670684 1.574.201205.553.181479.912.272219 1.077.272219z"/><path d="m208.721 16.3331c-.434 0-.651-.146-.651-.4379 0-.2288.142-.3432.426-.3432l.58.0591c.442 0 .741-.1893.899-.5681.174-.4339.261-1.3019.261-2.6038v-8.39143c0-1.29402-.063-2.10673-.19-2.43813-.118-.33929-.252-.55233-.402-.639121-.15-.086795-.339-.130192-.568-.130192l-.58.047343c-.284 0-.426-.114411-.426-.343233 0-.291944.209-.437917.627-.437917.426 0 .773.011836 1.042.035507.276.015781.552.035507.828.059178.734.063123 1.31.094685 1.728.094685.426 0 .876-.007891 1.349-.023671.474-.023672 1.002-.047343 1.586-.071014 1.539-.063123 2.604-.094685 3.196-.094685.6 0 .931.035507.994.106521.071.071013.107.169643.107.29589 0 .118355-.004.232766-.012.343232 0 .110465-.004.232767-.012.366907-.008.18148-.032.45369-.071.81665-.04.35507-.087.59573-.142.72197-.055.11836-.134.17754-.237.17754-.102 0-.173-.02367-.213-.07102-.039-.05523-.095-.17359-.166-.35506-.063-.18937-.181-.36691-.355-.53261-.165-.17358-.43-.31561-.793-.42608-.71-.21304-2.024-.31956-3.941-.31956h-1.053c-.19 0-.312.02762-.367.08285-.048.05523-.071.18148-.071.37874v4.98278c.939.11047 1.716.1657 2.331.1657.624 0 1.066-.00394 1.326-.01183.268-.00789.489-.03156.663-.07102.308-.05523.528-.19331.663-.41424.268-.41819.485-.62729.651-.62729.213 0 .319.11047.319.3314l-.414 1.68065.047.89951c0 .56811-.134.85216-.402.85216-.229 0-.343-.14992-.343-.44975 0-.30773-.02-.53655-.06-.68647-.031-.14991-.13-.26827-.295-.35506-.253-.12625-.868-.18937-1.847-.18937-.978 0-1.858.04339-2.639.13019v2.80505c0 1.7438.039 3.1838.118 4.32.639.142 1.334.213 2.083.213.75 0 1.389-.0197 1.918-.0592.536-.0394.998-.1183 1.384-.2367.766-.2288 1.33-.6667 1.693-1.3137.158-.2841.315-.4261.473-.4261s.237.1144.237.3432c0 .0947-.028.217-.083.3669-.063.2052-.154.5129-.272.9232-.118.4024-.209.6944-.272.8758-.063.1815-.134.3196-.213.4143-.119.1578-.351.2367-.699.2367-.347 0-.682-.0039-1.006-.0118-.323 0-.662-.004-1.018-.0119-.41-.0158-1.045-.0473-1.905-.0947-2.146-.1025-3.405-.138-3.776-.1065-.37.0316-.651.0553-.84.071-.189.0237-.375.0434-.556.0592-.182.0237-.395.0355-.639.0355z"/></g></svg>